<?xml version="1.0" standalone="no"?>
<!DOCTYPE svg PUBLIC "-//W3C//DTD SVG 20010904//EN"
 "http://www.w3.org/TR/2001/REC-SVG-20010904/DTD/svg10.dtd">
<svg version="1.0" xmlns="http://www.w3.org/2000/svg"
 width="900.000000pt" height="900.000000pt" viewBox="0 0 900.000000 900.000000"
 preserveAspectRatio="xMidYMid meet">
<metadata>
Created by potrace 1.10, written by Peter Selinger 2001-2011
</metadata>
<g transform="translate(0.000000,900.000000) scale(0.100000,-0.100000)"
fill="#000000" stroke="none">
<path d="M6800 7791 c-96 -21 -212 -101 -267 -184 -101 -152 -104 -324 -8
-497 8 -14 56 -70 108 -125 52 -55 113 -122 136 -150 24 -27 54 -63 68 -80 72
-84 271 -368 294 -420 5 -11 23 -42 39 -70 50 -84 182 -356 213 -440 8 -22 22
-59 31 -82 36 -95 45 -120 61 -178 10 -33 21 -69 25 -80 8 -21 39 -150 64
-265 88 -400 99 -884 30 -1300 -21 -129 -76 -376 -94 -425 -4 -11 -15 -47 -25
-80 -9 -33 -24 -78 -32 -100 -8 -22 -21 -57 -29 -77 -25 -67 -46 -122 -59
-153 -26 -61 -156 -322 -191 -385 -75 -133 -239 -371 -330 -479 -56 -66 -163
-187 -228 -256 -150 -161 -186 -353 -99 -532 31 -65 130 -169 184 -194 103
-48 112 -50 219 -50 107 0 114 1 220 50 117 54 545 564 725 863 5 9 29 48 51
85 191 313 374 741 468 1093 10 36 24 88 31 115 47 169 91 431 120 717 44 429
-8 1071 -120 1473 -7 28 -21 79 -31 115 -19 72 -102 328 -132 405 -80 210
-222 502 -336 688 -22 37 -46 76 -51 85 -135 225 -388 546 -589 748 -133 132
-196 165 -336 170 -52 1 -111 0 -130 -5z"/>
<path d="M3915 7621 c-118 -38 -133 -52 -1010 -930 l-850 -851 -615 0 c-577 0
-619 -1 -675 -19 -92 -30 -125 -49 -191 -115 -66 -66 -85 -99 -115 -191 -18
-57 -19 -103 -19 -1025 0 -922 1 -968 19 -1025 27 -84 45 -116 98 -175 52 -58
130 -106 213 -132 50 -16 114 -18 670 -18 l615 0 850 -851 c623 -624 865 -859
905 -882 154 -89 306 -89 461 1 97 55 162 140 201 262 17 52 18 200 18 2820 0
2620 -1 2768 -18 2820 -52 161 -153 262 -312 312 -68 22 -178 22 -245 -1z"/>
<path d="M5505 6514 c-95 -37 -134 -61 -191 -118 -68 -68 -87 -102 -115 -196
-23 -80 -24 -155 -2 -234 24 -86 51 -129 143 -231 81 -89 200 -238 200 -250 0
-4 11 -21 24 -38 14 -18 48 -79 76 -137 28 -58 55 -113 60 -122 12 -22 74
-216 93 -293 57 -222 57 -587 1 -810 -24 -93 -74 -244 -101 -305 -54 -119 -74
-157 -125 -238 -16 -24 -28 -45 -28 -48 0 -11 -123 -164 -200 -249 -92 -102
-119 -145 -143 -231 -22 -79 -21 -154 2 -234 25 -84 42 -117 93 -175 139 -158
367 -200 549 -103 52 28 115 83 194 171 44 49 85 94 90 100 52 58 187 252 248
357 34 59 149 292 171 350 33 83 36 92 56 153 211 654 183 1308 -83 1932 -27
63 -122 252 -149 295 -121 194 -206 308 -326 440 -161 177 -241 223 -402 227
-68 2 -106 -2 -135 -13z"/>
</g>
</svg>
